# xmcd CD database file
#
# Track frame offsets:
#	183
#	18755
#	39830
#	58935
#	78330
#	98440
#	114103
#	135028
#	154573
#	180823
#
# Disc length: 2629 seconds
#
# Revision: 0
# Processed by: cddbd v1.4PL0 Copyright (c) Steve Scherf et al.
# Submitted via: Feurio! 1.65 - http://www.feurio.com
#
DISCID=570a430a
DTITLE=Floyd Miles and Friends - Goin' Back To Daytona
DYEAR=1994
DGENRE=Soul
TTITLE0=The Same Thing
TTITLE1=Goin' Back To Daytona
TTITLE2=Mean Heartbreaker
TTITLE3=No Life At All
TTITLE4=Oh, Mary
TTITLE5=Two Against Them All
TTITLE6=All The Love I Can
TTITLE7=Samson and Delilah
TTITLE8=That's Why I'm Here Tonight
TTITLE9=Love On The Rocks
EXTD=(c) 1994 King Snake Records
EXTT0=
EXTT1=
EXTT2=
EXTT3=
EXTT4=
EXTT5=
EXTT6=
EXTT7=
EXTT8=
EXTT9=
PLAYORDER=
